<svg width="35" height="35" viewBox="0 0 35 35" fill="none" xmlns="http://www.w3.org/2000/svg">
<path d="M18.7863 19.134L13.3954 28.3669L8.00448 19.134H18.7863ZM20.2305 18.3088H6.55444L13.3954 30L20.2305 18.3088Z" fill="#263238"/>
<path d="M28.1591 7.65038L33.55 16.8833H22.7681L28.1591 7.65038ZM28.1591 6L21.3181 17.6912H35L28.1591 6Z" fill="#263238"/>
<path d="M0 6L5.7359 16.3409L12.0038 6.25966L0 6Z" fill="#4CAF4F"/>
<path d="M13.3955 6.90588L19.4121 17.189H7.36728L13.3955 6.90588Z" fill="#4CAF4F"/>
<path d="M20.9615 19.434L26.9839 30H14.6526L20.7744 19.434H20.9615Z" fill="#4CAF4F"/>
<path d="M22.2653 18.7935L28.1591 29.1978L34.1347 18.7935H22.2653Z" fill="#4CAF4F"/>
</svg>
